<svg width="12" height="14" viewBox="0 0 12 14" fill="none" xmlns="http://www.w3.org/2000/svg">
<path d="M11 5.88892C11 9.77781 6 13.1111 6 13.1111C6 13.1111 1 9.77781 1 5.88892C1 4.56283 1.52678 3.29106 2.46447 2.35338C3.40215 1.4157 4.67392 0.888916 6 0.888916C7.32608 0.888916 8.59785 1.4157 9.53553 2.35338C10.4732 3.29106 11 4.56283 11 5.88892Z" stroke="white" stroke-opacity="0.65" stroke-linecap="round" stroke-linejoin="round"/>
<path d="M6.00004 7.55556C6.92052 7.55556 7.66671 6.80937 7.66671 5.8889C7.66671 4.96842 6.92052 4.22223 6.00004 4.22223C5.07957 4.22223 4.33337 4.96842 4.33337 5.8889C4.33337 6.80937 5.07957 7.55556 6.00004 7.55556Z" stroke="white" stroke-opacity="0.65" stroke-linecap="round" stroke-linejoin="round"/>
</svg>
